<?xml version="1.0" standalone="no"?>
<!DOCTYPE svg PUBLIC "-//W3C//DTD SVG 20010904//EN"
 "http://www.w3.org/TR/2001/REC-SVG-20010904/DTD/svg10.dtd">
<svg version="1.0" xmlns="http://www.w3.org/2000/svg"
 width="64.000000pt" height="64.000000pt" viewBox="0 0 64.000000 64.000000"
 preserveAspectRatio="xMidYMid meet">

<g transform="translate(0.000000,64.000000) scale(0.100000,-0.100000)"
fill="#000000" stroke="none">
<path d="M372 605 c-61 -33 -72 -54 -72 -132 0 -40 6 -83 12 -96 19 -33 80
-97 93 -97 6 0 21 -10 33 -23 17 -18 22 -36 22 -80 0 -50 -2 -57 -20 -57 -16
0 -19 8 -22 58 l-3 57 -55 0 -55 0 -3 -59 c-3 -55 -1 -61 30 -93 18 -19 46
-40 62 -48 33 -17 92 -20 101 -5 3 6 16 10 29 10 28 0 56 29 56 58 0 11 5 24
10 27 13 8 13 102 0 110 -5 3 -10 16 -10 28 0 24 -90 120 -131 141 -20 9 -25
20 -27 64 -3 46 -1 52 17 52 16 0 20 -8 23 -37 2 -29 8 -39 23 -41 11 -2 30
-8 42 -14 37 -18 53 -4 53 47 0 65 -36 125 -76 125 -13 0 -26 5 -29 10 -9 14
-75 11 -103 -5z"/>
<path d="M44 586 c-3 -8 -4 -29 -2 -48 3 -33 3 -33 61 -36 l57 -3 0 -39 c0
-21 -4 -42 -10 -45 -5 -3 -10 -26 -10 -50 0 -24 -4 -47 -10 -50 -5 -3 -10 -30
-10 -60 0 -30 -5 -57 -10 -60 -5 -3 -10 -24 -10 -46 0 -21 -5 -48 -12 -58 -21
-33 -3 -51 50 -51 64 0 82 19 82 88 0 28 4 54 10 57 5 3 10 30 10 60 0 30 4
57 10 60 6 3 10 30 10 59 0 28 5 57 10 62 6 6 10 44 8 90 l-3 79 -113 3 c-90
2 -113 0 -118 -12z"/>
</g>
</svg>
